PathFileType	4	(X/Y/Z)	C:/Users/beibeiliu/ov580/test_trc/capture2\sequence.24_training_dense_right.trc
DataRate	CameraRate	NumFrames	NumMarkers	Units	OrigDataRate	OrigDataStartFrame	OrigNumFrames
120	120	14	19	mm	120	251	400
Frame#	Time	ThumbCMC			ThumbMCP			ThumbIP			ThumbTip			IndexMCP			IndexPIP			IndexTip			MiddleMCP			MiddlePIP			MiddleTip			RingMCP			RingPIP			RingTip			PinkyMCP			PinkyPIP			PinkyTip			BackHand1			BackHand2			BackHand3	
		X0	Y0	Z0	X1	Y1	Z1	X2	Y2	Z2	X3	Y3	Z3	X4	Y4	Z4	X5	Y5	Z5	X6	Y6	Z6	X7	Y7	Z7	X8	Y8	Z8	X9	Y9	Z9	X10	Y10	Z10	X11	Y11	Z11	X12	Y12	Z12	X13	Y13	Z13	X14	Y14	Z14	X15	Y15	Z15	X16	Y16	Z16	X17	Y17	Z17	X18	Y18	Z18	
250	2.08333	154.709	65.4304	27.2449	122.454	50.979	40.1483	101.627	28.5853	37.4627	99.9108	2.72551	34.6726	124.612	23.7987	-22.8597	105.925	11.4759	-21.8378	83.367	1.19072	-20.175	132.206	3.3059	-15.8039	105.648	-10.0673	-16.7356	77.8693	-18.5142	-11.2518	136.376	-10.1832	3.64358	110.091	-7.01142	21.0316	121.206	20.9585	41.7674	140.116	-12.9471	24.1683	123.95	3.85999	43.9934	144.724	27.8645	47.2815	187.535	15.3005	12.3073	204.59	30.493	28.742	183.904	47.1193	4.02016	
251	2.09167	157.004	70.99	27.0317	125.343	57.6518	39.0645	102.677	39.9525	37.8819	91.6414	13.0251	32.4811	125.975	34.0474	-23.3075	97.7718	24.974	-26.4674	73.9129	10.4571	-23.0624	126.718	12.7019	-19.5706	97.7392	1.52047	-20.2769	70.82	-3.6803	-18.1469	126.486	-1.88626	-0.625317	101.803	0.967042	18.9746	114.474	27.5964	38.4011	131.221	-9.21542	22.6793	117.913	11.1283	40.8973	139.177	35.1241	46.242	180.593	13.2919	8.22168	201.22	23.6971	28.8163	182.949	46.2533	4.06273	
252	2.1	159.247	72.7591	27.3736	122.595	64.8226	34.8318	99.3748	50.286	33.7916	89.8107	28.6089	30.8161	124.165	36.539	-23.7547	95.8447	32.9576	-27.9448	70.3041	26.2172	-30.1757	121.265	18.7703	-21.4638	95.6254	11.0241	-23.4969	62.194	9.54702	-22.2628	119.707	5.64307	-1.91846	95.6985	11.956	17.4018	112.494	35.67	38.3366	124.251	0.9465	17.6507	112.654	16.2844	40.7814	137.159	36.8346	48.6475	176.851	11.2109	8.25097	199.025	20.5058	27.4978	183.53	44.3412	3.95182	
253	2.10833	160.401	74.2601	24.7817	128.553	71.7251	33.9378	97.1931	60.2218	27.2175	82.6036	41.2852	22.1075	122.175	48.4137	-27.9798	95.962	46.032	-32.624	73.8413	41.4154	-35.6595	118.163	29.2155	-24.6779	88.5816	22.9192	-28.6303	59.8952	24.29	-30.6079	112.55	12.2725	-3.29492	93.1044	23.7804	15.324	111.455	43.5393	37.81	118.592	4.20217	17.1043	107.405	22.3136	36.034	133.121	41.3562	47.882	169.314	12.7033	6.49473	195.663	21.4486	22.902	183.259	44.2934	3.07608	
254	2.11667	164.321	74.3044	26.7049	129.07	75.5962	30.1211	102.632	68.0766	22.2532	86.7054	48.5026	15.0578	120.145	53.0338	-31.3843	98.4921	53.8141	-35.5655	70.2906	54.365	-44.2944	117.575	37.1524	-28.1807	88.7739	35.9915	-34.5959	57.9577	36.8891	-38.0426	108.508	22.1189	-6.65224	89.2521	36.0702	13.9253	110.773	50.8865	37.2185	111.754	9.33572	12.6477	104.77	33.7273	31.2019	128.694	45.5446	42.3348	167.518	12.6353	5.1258	189.495	20.684	20.0218	182.51	47.4958	2.92881	
255	2.125	166.085	78.0698	26.6758	128	82.2945	24.5349	100.313	78.6614	16.6107	81.5184	61.6676	6.77635	127.234	62.1192	-34.2428	101.704	65.7849	-44.7663	75.3168	65.3842	-54.2259	116.812	44.0402	-34.407	91.5675	45.7472	-41.9979	65.6998	49.6187	-47.9601	109.255	29.7351	-12.0526	86.4919	45.5054	9.27975	104.288	57.3878	31.1336	107.465	16.3726	6.28011	99.2898	38.1591	26.456	122.161	52.0717	38.9363	160.76	17.0877	0.777886	187.265	19.2058	22.4586	179.882	49.906	1.52525	
256	2.13333	164.102	77.3886	21.8598	129.886	85.9114	23.0307	103.529	84.3136	12.323	86.437	72.6984	4.03971	128.879	66.2508	-39.0957	109.795	73.4689	-51.0771	85.5697	74.874	-62.1072	121.419	47.4368	-38.2028	95.8757	53.5992	-50.5871	70.234	63.2933	-61.8604	105.919	41.105	-21.665	84.5102	50.9617	-2.68829	98.8108	65.4318	23.325	101.747	26.8211	-0.328174	96.6683	48.796	18.1805	116.317	58.5846	35.4464	159.347	21.09	-1.45304	180.795	18.7734	18.9734	181.156	44.6825	2.31385	
257	2.14167	167.162	80.2031	23.713	132.439	89.5295	22.1097	105.387	93.4326	12.7618	85.4531	80.9249	0.497918	133.59	73.559	-43.8087	110.03	78.0055	-56.9948	92.3075	82.5767	-69.319	124.372	56.5105	-45.0739	102.288	63.122	-57.3943	76.3511	72.5167	-71.001	107.324	45.7725	-28.1148	83.8848	62.0486	-13.8599	95.1988	74.7367	13.0482	99.7345	34.1255	-4.6245	91.2633	54.6882	12.0064	116.337	65.1946	32.2161	150.97	21.3913	-3.0593	172.822	15.9901	19.4696	178.108	44.4673	2.83914	
258	2.15	165.936	77.8207	23.9338	131.164	97.8469	19.4857	105.53	97.959	9.89591	83.2089	86.4499	-1.10416	136.792	71.6272	-44.664	115.736	82.1086	-61.5818	99.415	86.106	-72.9867	123.479	55.8538	-46.2281	105.121	69.8886	-65.7645	82.2305	79.9823	-79.3034	102.408	47.3039	-32.3087	83.3815	70.3082	-22.4894	95.3723	80.8707	8.49236	99.4491	39.6667	-8.2786	87.5319	63.2315	9.82455	113.601	71.9963	26.4065	148.144	21.797	-3.01467	162.016	13.8939	21.3552	175.553	43.3322	0.459936	
259	2.15833	165.329	77.8731	22.3202	132.019	95.9725	18.4843	106.608	99.2833	7.73776	85.5095	89.6866	-1.31962	140.07	75.4599	-48.6288	123.376	85.9707	-64.1098	106.509	92.9492	-81.7313	122.982	58.8125	-50.6183	110.777	73.1858	-67.8822	89.8065	80.5209	-83.3734	107.758	51.9226	-34.6144	85.4978	72.1456	-29.5955	94.9035	87.5716	-0.662886	92.2804	45.6064	-12.6417	87.8402	71.6621	5.05804	109.281	76.6667	24.2701	140.203	21.3971	-4.26127	156.118	13.4701	25.3271	173.878	43.0041	3.85086	
260	2.16667	163.836	78.1217	23.9985	133.254	97.717	19.3626	105.727	103.27	4.64629	83.1533	91.0921	-7.52255	139.771	72.854	-49.7978	126.969	82.6666	-65.6325	111.935	93.6486	-85.6386	128.46	58.6921	-49.0124	114.786	71.0738	-70.666	97.6469	84.2954	-89.8529	106.958	54.5769	-38.1346	87.5458	78.553	-33.9707	95.3923	89.6653	-2.56221	91.2518	49.2966	-16.7873	85.3241	72.7619	-0.756847	106.619	76.4343	21.9334	138.038	22.5609	-0.821497	152.928	15.2899	24.1969	167.797	40.0363	0.933859	
261	2.175	161.137	74.6256	23.2897	129.65	97.4927	13.3408	103.584	98.7433	-2.58087	86.2186	83.2244	-12.0242	144.566	71.48	-50.0564	136.139	83.4834	-68.5247	118.647	90.0932	-88.1062	132.289	58.8573	-54.7082	117.142	68.55	-74.7675	103.475	83.9996	-97.5689	106.703	53.4606	-42.7141	87.2308	75.0724	-39.0074	96.923	89.4922	-6.38174	95.5759	46.5327	-19.2445	84.5846	73.2172	-5.18	109.633	77.2317	16.9508	136.68	22.0514	-4.80803	151.328	16.7934	22.7291	167.112	40.1041	4.02592	
262	2.18333	158.408	75.8936	19.7982	129.374	97.013	13.773	105.141	101.908	-5.26548	86.1414	85.081	-18.2884	148.354	69.3204	-53.7556	137.173	77.212	-71.6287	125.427	83.6017	-93.0188	133.65	52.9665	-55.9633	123.426	64.0633	-80.8762	111.204	75.542	-100.903	111.281	48.624	-44.2508	92.2804	74.6925	-43.4603	95.1065	85.2465	-10.4787	95.4379	45.8849	-24.1885	86.0302	70.8627	-12.4567	103.142	74.9315	12.8975	135.93	18.4157	-1.88358	148.651	12.0364	22.5873	166.122	37.2495	1.89528	
263	2.19167	156.069	74.647	18.3322	127.994	94.2865	6.95726	104.517	94.8586	-15.0285	88.1268	82.5018	-27.8349	155.462	64.7717	-53.9075	148.684	74.4602	-75.5258	138.503	77.7741	-94.1972	141.425	47.2493	-55.2549	134.417	56.2034	-80.0691	126.282	68.7318	-106.911	117.327	44.3079	-49.0607	94.2799	66.946	-50.8612	94.7364	80.6379	-20.2212	99.0154	39.6866	-29.2072	88.5761	66.4637	-18.7837	103.652	74.3634	6.88889	140.104	17.7269	-3.31599	149.379	11.7162	24.4818	167.118	37.6086	7.85257	
